<svg viewBox="0 0 72 72" xmlns="http://www.w3.org/2000/svg"><path d="m38.97 14.268h-5.5828c-.1475-.1475 2.7839 4.4322 2.7916 4.42.0076.012 2.9391-4.5675 2.7912-4.42z"/><g fill="none" stroke="#000" stroke-width="2"><path d="m23.96 17.1731c.0775-.0278 5.1429-2.9513 5.1429-2.9513h13.0771" stroke-linecap="round" stroke-linejoin="round"/><path d="m34.9279 24.8908h2.8388a10.2649 10.2649 0 0 1 10.2649 10.2649v17.5843a5.6461 5.6461 0 0 1 -5.6461 5.6461h-12.0765a5.6461 5.6461 0 0 1 -5.6461-5.6461v-17.5843a10.2649 10.2649 0 0 1 10.265-10.2649z" stroke-linecap="round" stroke-linejoin="round"/><path d="m36.0746 17.7765a3.7 3.7 0 0 1 3.7 3.7v3.1971a0 0 0 0 1 0 0h-7.4a0 0 0 0 1 0 0v-3.1971a3.7 3.7 0 0 1 3.7-3.7z" stroke-linecap="round" stroke-linejoin="round"/><ellipse cx="36.3481" cy="41.6347" rx="6.8339" ry="10.5612" stroke-miterlimit="10"/></g></svg>